<?xml version="1.0" encoding="UTF-8" standalone="no"?>
<!DOCTYPE svg PUBLIC "-//W3C//DTD SVG 1.1//EN"
 "http://www.w3.org/Graphics/SVG/1.1/DTD/svg11.dtd">
<!-- Generated by graphviz version 2.40.1 (20161225.0304)
 -->
<!-- Title: dependencies Pages: 1 -->
<svg width="2564pt" height="284pt"
 viewBox="0.00 0.00 2564.00 284.00" xmlns="http://www.w3.org/2000/svg" xmlns:xlink="http://www.w3.org/1999/xlink">
<g id="graph0" class="graph" transform="scale(1 1) rotate(0) translate(4 280)">
<title>dependencies</title>
<polygon fill="#ffffff" stroke="transparent" points="-4,4 -4,-280 2560,-280 2560,4 -4,4"/>
<text text-anchor="start" x="1257.0091" y="-42.4" font-family="sans-serif" font-weight="bold" font-size="14.00" fill="#000000">Legend</text>
<polygon fill="#ffffb3" stroke="transparent" points="1044,-10 1044,-30 1064,-30 1064,-10 1044,-10"/>
<text text-anchor="start" x="1067.629" y="-15.4" font-family="sans-serif" font-size="14.00" fill="#000000"> &#160;Declarations</text>
<polygon fill="#8dd3c7" stroke="transparent" points="1157,-10 1157,-30 1177,-30 1177,-10 1157,-10"/>
<text text-anchor="start" x="1180.7251" y="-15.4" font-family="sans-serif" font-size="14.00" fill="#000000"> &#160;Module</text>
<polygon fill="#80b1d3" stroke="transparent" points="1243,-10 1243,-30 1263,-30 1263,-10 1243,-10"/>
<text text-anchor="start" x="1266.7812" y="-15.4" font-family="sans-serif" font-size="14.00" fill="#000000"> &#160;Bootstrap</text>
<polygon fill="#fdb462" stroke="transparent" points="1340,-10 1340,-30 1360,-30 1360,-10 1340,-10"/>
<text text-anchor="start" x="1363.6732" y="-15.4" font-family="sans-serif" font-size="14.00" fill="#000000"> &#160;Providers</text>
<polygon fill="#fb8072" stroke="transparent" points="1436,-10 1436,-30 1456,-30 1456,-10 1436,-10"/>
<text text-anchor="start" x="1459.7258" y="-15.4" font-family="sans-serif" font-size="14.00" fill="#000000"> &#160;Exports</text>
<g id="clust1" class="cluster">
<title>cluster_AppModule</title>
<polygon fill="none" stroke="#000000" stroke-dasharray="1,5" points="8,-70 8,-268 2548,-268 2548,-70 8,-70"/>
</g>
<g id="clust2" class="cluster">
<title>cluster_AppModule_declarations</title>
<polygon fill="none" stroke="#000000" points="293,-78 293,-130 2540,-130 2540,-78 293,-78"/>
</g>
<g id="clust17" class="cluster">
<title>cluster_AppModule_imports</title>
<polygon fill="none" stroke="#000000" points="16,-78 16,-130 285,-130 285,-78 16,-78"/>
</g>
<g id="clust19" class="cluster">
<title>cluster_AppModule_bootstrap</title>
<polygon fill="none" stroke="#000000" points="1175,-208 1175,-260 1299,-260 1299,-208 1175,-208"/>
</g>
<!-- AlertComponent -->
<g id="node1" class="node">
<title>AlertComponent</title>
<polygon fill="#ffffb3" stroke="#000000" points="2532.0954,-122 2421.9046,-122 2421.9046,-86 2532.0954,-86 2532.0954,-122"/>
<text text-anchor="middle" x="2477" y="-99.8" font-family="Times,serif" font-size="14.00" fill="#000000">AlertComponent</text>
</g>
<!-- AppModule -->
<g id="node15" class="node">
<title>AppModule</title>
<polygon fill="#8dd3c7" stroke="#000000" points="1278.6571,-187 1275.6571,-191 1254.6571,-191 1251.6571,-187 1195.3429,-187 1195.3429,-151 1278.6571,-151 1278.6571,-187"/>
<text text-anchor="middle" x="1237" y="-164.8" font-family="Times,serif" font-size="14.00" fill="#000000">AppModule</text>
</g>
<!-- AlertComponent&#45;&gt;AppModule -->
<g id="edge1" class="edge">
<title>AlertComponent&#45;&gt;AppModule</title>
<path fill="none" stroke="#000000" d="M2477,-122.3228C2477,-145.6602 2477,-183 2477,-183 2477,-183 1288.9675,-183 1288.9675,-183"/>
<polygon fill="#000000" stroke="#000000" points="1288.9676,-179.5001 1278.9675,-183 1288.9675,-186.5001 1288.9676,-179.5001"/>
</g>
<!-- AppComponent -->
<g id="node2" class="node">
<title>AppComponent</title>
<polygon fill="#ffffb3" stroke="#000000" points="2403.9399,-122 2298.0601,-122 2298.0601,-86 2403.9399,-86 2403.9399,-122"/>
<text text-anchor="middle" x="2351" y="-99.8" font-family="Times,serif" font-size="14.00" fill="#000000">AppComponent</text>
</g>
<!-- AppComponent&#45;&gt;AppModule -->
<g id="edge2" class="edge">
<title>AppComponent&#45;&gt;AppModule</title>
<path fill="none" stroke="#000000" d="M2351,-122.2921C2351,-144.2057 2351,-178 2351,-178 2351,-178 1288.9728,-178 1288.9728,-178"/>
<polygon fill="#000000" stroke="#000000" points="1288.9728,-174.5001 1278.9728,-178 1288.9727,-181.5001 1288.9728,-174.5001"/>
</g>
<!-- AppointmentComponent -->
<g id="node3" class="node">
<title>AppointmentComponent</title>
<polygon fill="#ffffb3" stroke="#000000" points="2280.7162,-122 2125.2838,-122 2125.2838,-86 2280.7162,-86 2280.7162,-122"/>
<text text-anchor="middle" x="2203" y="-99.8" font-family="Times,serif" font-size="14.00" fill="#000000">AppointmentComponent</text>
</g>
<!-- AppointmentComponent&#45;&gt;AppModule -->
<g id="edge3" class="edge">
<title>AppointmentComponent&#45;&gt;AppModule</title>
<path fill="none" stroke="#000000" d="M2203,-122.0267C2203,-142.7672 2203,-174 2203,-174 2203,-174 1288.8179,-174 1288.8179,-174"/>
<polygon fill="#000000" stroke="#000000" points="1288.8179,-170.5001 1278.8179,-174 1288.8178,-177.5001 1288.8179,-170.5001"/>
</g>
<!-- AppointmentDetailsComponent -->
<g id="node4" class="node">
<title>AppointmentDetailsComponent</title>
<polygon fill="#ffffb3" stroke="#000000" points="2107.3682,-122 1912.6318,-122 1912.6318,-86 2107.3682,-86 2107.3682,-122"/>
<text text-anchor="middle" x="2010" y="-99.8" font-family="Times,serif" font-size="14.00" fill="#000000">AppointmentDetailsComponent</text>
</g>
<!-- AppointmentDetailsComponent&#45;&gt;AppModule -->
<g id="edge4" class="edge">
<title>AppointmentDetailsComponent&#45;&gt;AppModule</title>
<path fill="none" stroke="#000000" d="M2010,-122.1061C2010,-141.3391 2010,-169 2010,-169 2010,-169 1288.8339,-169 1288.8339,-169"/>
<polygon fill="#000000" stroke="#000000" points="1288.834,-165.5001 1278.8339,-169 1288.8339,-172.5001 1288.834,-165.5001"/>
</g>
<!-- FacilityComponent -->
<g id="node5" class="node">
<title>FacilityComponent</title>
<polygon fill="#ffffb3" stroke="#000000" points="1895.1066,-122 1770.8934,-122 1770.8934,-86 1895.1066,-86 1895.1066,-122"/>
<text text-anchor="middle" x="1833" y="-99.8" font-family="Times,serif" font-size="14.00" fill="#000000">FacilityComponent</text>
</g>
<!-- FacilityComponent&#45;&gt;AppModule -->
<g id="edge5" class="edge">
<title>FacilityComponent&#45;&gt;AppModule</title>
<path fill="none" stroke="#000000" d="M1833,-122.302C1833,-140.2699 1833,-165 1833,-165 1833,-165 1288.9096,-165 1288.9096,-165"/>
<polygon fill="#000000" stroke="#000000" points="1288.9096,-161.5001 1278.9096,-165 1288.9095,-168.5001 1288.9096,-161.5001"/>
</g>
<!-- FacilityDetailsComponent -->
<g id="node6" class="node">
<title>FacilityDetailsComponent</title>
<polygon fill="#ffffb3" stroke="#000000" points="1752.759,-122 1589.241,-122 1589.241,-86 1752.759,-86 1752.759,-122"/>
<text text-anchor="middle" x="1671" y="-99.8" font-family="Times,serif" font-size="14.00" fill="#000000">FacilityDetailsComponent</text>
</g>
<!-- FacilityDetailsComponent&#45;&gt;AppModule -->
<g id="edge6" class="edge">
<title>FacilityDetailsComponent&#45;&gt;AppModule</title>
<path fill="none" stroke="#000000" d="M1671,-122.027C1671,-138.3976 1671,-160 1671,-160 1671,-160 1289.0081,-160 1289.0081,-160"/>
<polygon fill="#000000" stroke="#000000" points="1289.0081,-156.5001 1279.0081,-160 1289.0081,-163.5001 1289.0081,-156.5001"/>
</g>
<!-- InsuranceComponent -->
<g id="node7" class="node">
<title>InsuranceComponent</title>
<polygon fill="#ffffb3" stroke="#000000" points="1570.7422,-122 1435.2578,-122 1435.2578,-86 1570.7422,-86 1570.7422,-122"/>
<text text-anchor="middle" x="1503" y="-99.8" font-family="Times,serif" font-size="14.00" fill="#000000">InsuranceComponent</text>
</g>
<!-- InsuranceComponent&#45;&gt;AppModule -->
<g id="edge7" class="edge">
<title>InsuranceComponent&#45;&gt;AppModule</title>
<path fill="none" stroke="#000000" d="M1503,-122.1871C1503,-137.1824 1503,-156 1503,-156 1503,-156 1288.8551,-156 1288.8551,-156"/>
<polygon fill="#000000" stroke="#000000" points="1288.8552,-152.5001 1278.8551,-156 1288.8551,-159.5001 1288.8552,-152.5001"/>
</g>
<!-- InsuranceDetailsComponent -->
<g id="node8" class="node">
<title>InsuranceDetailsComponent</title>
<polygon fill="#ffffb3" stroke="#000000" points="1416.8946,-122 1241.1054,-122 1241.1054,-86 1416.8946,-86 1416.8946,-122"/>
<text text-anchor="middle" x="1329" y="-99.8" font-family="Times,serif" font-size="14.00" fill="#000000">InsuranceDetailsComponent</text>
</g>
<!-- InsuranceDetailsComponent&#45;&gt;AppModule -->
<g id="edge8" class="edge">
<title>InsuranceDetailsComponent&#45;&gt;AppModule</title>
<path fill="none" stroke="#000000" d="M1260.0655,-122.1061C1260.0655,-122.1061 1260.0655,-140.991 1260.0655,-140.991"/>
<polygon fill="#000000" stroke="#000000" points="1256.5656,-140.9909 1260.0655,-150.991 1263.5656,-140.991 1256.5656,-140.9909"/>
</g>
<!-- LandingPageComponent -->
<g id="node9" class="node">
<title>LandingPageComponent</title>
<polygon fill="#ffffb3" stroke="#000000" points="1223.7021,-122 1068.2979,-122 1068.2979,-86 1223.7021,-86 1223.7021,-122"/>
<text text-anchor="middle" x="1146" y="-99.8" font-family="Times,serif" font-size="14.00" fill="#000000">LandingPageComponent</text>
</g>
<!-- LandingPageComponent&#45;&gt;AppModule -->
<g id="edge9" class="edge">
<title>LandingPageComponent&#45;&gt;AppModule</title>
<path fill="none" stroke="#000000" d="M1209.3864,-122.1061C1209.3864,-122.1061 1209.3864,-140.991 1209.3864,-140.991"/>
<polygon fill="#000000" stroke="#000000" points="1205.8865,-140.9909 1209.3864,-150.991 1212.8865,-140.991 1205.8865,-140.9909"/>
</g>
<!-- LoginComponent -->
<g id="node10" class="node">
<title>LoginComponent</title>
<polygon fill="#ffffb3" stroke="#000000" points="1050.2758,-122 935.7242,-122 935.7242,-86 1050.2758,-86 1050.2758,-122"/>
<text text-anchor="middle" x="993" y="-99.8" font-family="Times,serif" font-size="14.00" fill="#000000">LoginComponent</text>
</g>
<!-- LoginComponent&#45;&gt;AppModule -->
<g id="edge10" class="edge">
<title>LoginComponent&#45;&gt;AppModule</title>
<path fill="none" stroke="#000000" d="M993,-122.1871C993,-137.1824 993,-156 993,-156 993,-156 1185.3321,-156 1185.3321,-156"/>
<polygon fill="#000000" stroke="#000000" points="1185.3322,-159.5001 1195.3321,-156 1185.3321,-152.5001 1185.3322,-159.5001"/>
</g>
<!-- NavbarComponent -->
<g id="node11" class="node">
<title>NavbarComponent</title>
<polygon fill="#ffffb3" stroke="#000000" points="917.0297,-122 794.9703,-122 794.9703,-86 917.0297,-86 917.0297,-122"/>
<text text-anchor="middle" x="856" y="-99.8" font-family="Times,serif" font-size="14.00" fill="#000000">NavbarComponent</text>
</g>
<!-- NavbarComponent&#45;&gt;AppModule -->
<g id="edge11" class="edge">
<title>NavbarComponent&#45;&gt;AppModule</title>
<path fill="none" stroke="#000000" d="M856,-122.027C856,-138.3976 856,-160 856,-160 856,-160 1185.1365,-160 1185.1365,-160"/>
<polygon fill="#000000" stroke="#000000" points="1185.1365,-163.5001 1195.1365,-160 1185.1364,-156.5001 1185.1365,-163.5001"/>
</g>
<!-- ProviderComponent -->
<g id="node12" class="node">
<title>ProviderComponent</title>
<polygon fill="#ffffb3" stroke="#000000" points="776.5422,-122 647.4578,-122 647.4578,-86 776.5422,-86 776.5422,-122"/>
<text text-anchor="middle" x="712" y="-99.8" font-family="Times,serif" font-size="14.00" fill="#000000">ProviderComponent</text>
</g>
<!-- ProviderComponent&#45;&gt;AppModule -->
<g id="edge12" class="edge">
<title>ProviderComponent&#45;&gt;AppModule</title>
<path fill="none" stroke="#000000" d="M712,-122.302C712,-140.2699 712,-165 712,-165 712,-165 1184.9245,-165 1184.9245,-165"/>
<polygon fill="#000000" stroke="#000000" points="1184.9245,-168.5001 1194.9245,-165 1184.9245,-161.5001 1184.9245,-168.5001"/>
</g>
<!-- ProviderSelectionComponent -->
<g id="node13" class="node">
<title>ProviderSelectionComponent</title>
<polygon fill="#ffffb3" stroke="#000000" points="628.64,-122 447.36,-122 447.36,-86 628.64,-86 628.64,-122"/>
<text text-anchor="middle" x="538" y="-99.8" font-family="Times,serif" font-size="14.00" fill="#000000">ProviderSelectionComponent</text>
</g>
<!-- ProviderSelectionComponent&#45;&gt;AppModule -->
<g id="edge13" class="edge">
<title>ProviderSelectionComponent&#45;&gt;AppModule</title>
<path fill="none" stroke="#000000" d="M538,-122.1061C538,-141.3391 538,-169 538,-169 538,-169 1185.1085,-169 1185.1085,-169"/>
<polygon fill="#000000" stroke="#000000" points="1185.1085,-172.5001 1195.1085,-169 1185.1084,-165.5001 1185.1085,-172.5001"/>
</g>
<!-- RegisterComponent -->
<g id="node14" class="node">
<title>RegisterComponent</title>
<polygon fill="#ffffb3" stroke="#000000" points="428.9846,-122 301.0154,-122 301.0154,-86 428.9846,-86 428.9846,-122"/>
<text text-anchor="middle" x="365" y="-99.8" font-family="Times,serif" font-size="14.00" fill="#000000">RegisterComponent</text>
</g>
<!-- RegisterComponent&#45;&gt;AppModule -->
<g id="edge14" class="edge">
<title>RegisterComponent&#45;&gt;AppModule</title>
<path fill="none" stroke="#000000" d="M365,-122.0267C365,-142.7672 365,-174 365,-174 365,-174 1185.2354,-174 1185.2354,-174"/>
<polygon fill="#000000" stroke="#000000" points="1185.2354,-177.5001 1195.2354,-174 1185.2354,-170.5001 1185.2354,-177.5001"/>
</g>
<!-- AppComponent  -->
<g id="node18" class="node">
<title>AppComponent </title>
<polygon fill="#80b1d3" stroke="#000000" points="1291.439,-252 1182.561,-252 1182.561,-216 1291.439,-216 1291.439,-252"/>
<text text-anchor="middle" x="1237" y="-229.8" font-family="Times,serif" font-size="14.00" fill="#000000">AppComponent </text>
</g>
<!-- AppModule&#45;&gt;AppComponent  -->
<g id="edge17" class="edge">
<title>AppModule&#45;&gt;AppComponent </title>
<path fill="none" stroke="#000000" stroke-dasharray="1,5" d="M1237,-187.1061C1237,-187.1061 1237,-205.991 1237,-205.991"/>
<polygon fill="#000000" stroke="#000000" points="1233.5001,-205.9909 1237,-215.991 1240.5001,-205.991 1233.5001,-205.9909"/>
</g>
<!-- AppRoutingModule -->
<g id="node16" class="node">
<title>AppRoutingModule</title>
<polygon fill="#8dd3c7" stroke="#000000" points="277.2744,-122 274.2744,-126 253.2744,-126 250.2744,-122 148.7256,-122 148.7256,-86 277.2744,-86 277.2744,-122"/>
<text text-anchor="middle" x="213" y="-99.8" font-family="Times,serif" font-size="14.00" fill="#000000">AppRoutingModule</text>
</g>
<!-- AppRoutingModule&#45;&gt;AppModule -->
<g id="edge15" class="edge">
<title>AppRoutingModule&#45;&gt;AppModule</title>
<path fill="none" stroke="#000000" d="M213,-122.2921C213,-144.2057 213,-178 213,-178 213,-178 1185.2699,-178 1185.2699,-178"/>
<polygon fill="#000000" stroke="#000000" points="1185.2699,-181.5001 1195.2699,-178 1185.2698,-174.5001 1185.2699,-181.5001"/>
</g>
<!-- MaterialModule -->
<g id="node17" class="node">
<title>MaterialModule</title>
<polygon fill="#8dd3c7" stroke="#000000" points="130.4706,-122 127.4706,-126 106.4706,-126 103.4706,-122 23.5294,-122 23.5294,-86 130.4706,-86 130.4706,-122"/>
<text text-anchor="middle" x="77" y="-99.8" font-family="Times,serif" font-size="14.00" fill="#000000">MaterialModule</text>
</g>
<!-- MaterialModule&#45;&gt;AppModule -->
<g id="edge16" class="edge">
<title>MaterialModule&#45;&gt;AppModule</title>
<path fill="none" stroke="#000000" d="M77,-122.3228C77,-145.6602 77,-183 77,-183 77,-183 1185.0297,-183 1185.0297,-183"/>
<polygon fill="#000000" stroke="#000000" points="1185.0297,-186.5001 1195.0297,-183 1185.0296,-179.5001 1185.0297,-186.5001"/>
</g>
</g>
</svg>
